<svg width="500" height="300" viewBox="0 0 500 300" fill="none" xmlns="http://www.w3.org/2000/svg">
<g clip-path="url(#clip0_9_133)">
<rect width="500" height="300" fill="#F1DED1"/>
<path d="M293.113 126.191C293.876 125.747 294.224 125.562 294.558 125.349C298.522 122.767 302.832 121.038 307.438 120.014C311.805 119.036 316.058 119.312 320.146 121.199C321.743 121.933 323.307 122.752 324.864 123.57C327.088 124.731 329.265 125.976 331.505 127.095C333.078 127.878 334.714 128.549 336.352 129.185C341.732 131.272 346.957 130.833 352.06 128.215C354.888 126.765 357.737 125.337 360.624 124.005C364.549 122.199 368.669 121.698 372.924 122.528C374.121 122.76 375.319 122.992 376.508 123.246C381.358 124.278 385.941 123.577 390.243 121.135C392.716 119.732 395.162 118.291 397.602 116.829C400.74 114.948 403.943 113.2 407.33 111.799C412.215 109.782 417.23 109.073 422.448 109.937C424.047 110.203 425.652 110.499 427.231 110.872C434.443 112.575 441.727 112.714 449.031 111.701C454.82 110.902 459.849 108.33 464.288 104.578C467.435 101.92 469.967 98.7569 471.881 95.1313C473.366 92.3192 474.719 89.4285 476.105 86.5683C477.725 83.216 479.303 79.8399 480.938 76.4883C481.562 75.2095 482.257 73.9702 482.987 72.747C485.005 69.3496 487.92 67.0258 491.627 65.7056C493.539 65.0232 495.514 64.5095 497.427 63.8271C499.338 63.1519 501.245 62.4405 503.086 61.5962C505.685 60.401 507.604 58.4308 509.05 55.9693C510.009 54.3401 511.024 52.7281 512.088 51.1617C514.572 47.4995 518.115 45.4228 522.374 44.4394C527.826 43.1842 533.26 43.3313 538.66 44.729C540.301 45.1558 541.942 45.5754 543.549 46.1085C546.453 47.0657 549.242 48.2907 551.775 50.0355C553.508 51.2225 555.256 52.3887 556.966 53.6106C557.897 54.2757 558.858 54.9206 559.327 56.0593C559.469 56.3974 559.856 56.5677 560.174 56.3892C560.433 56.2509 560.708 55.9263 560.743 55.6546C560.783 55.2895 560.698 54.8248 560.49 54.5266C560.154 54.035 559.732 53.5535 559.246 53.2055C556.605 51.3114 554.012 49.3333 551.261 47.6208C548.196 45.7129 544.779 44.5359 541.297 43.6364C538.548 42.9243 535.763 42.3256 532.996 41.6774C530.556 41.103 528.098 40.6141 525.685 39.9331C522.143 38.937 518.846 37.3558 515.773 35.3323C514.003 34.1651 512.424 32.7842 511.162 31.088C509.907 29.4065 508.711 27.6848 507.553 25.9362C505.652 23.0641 504.962 19.8491 505.116 16.4528C505.203 14.7011 505.441 12.9498 505.621 11.2028C505.832 9.11912 506.13 7.03252 506.227 4.94313C506.296 3.53609 506.202 2.09215 505.976 0.699219C505.603 -1.62939 504.378 -3.48925 502.244 -4.57381C500.987 -5.21184 499.638 -5.72493 498.275 -6.08763C494.09 -7.18751 489.841 -7.26153 485.573 -6.68158C482.219 -6.22905 478.87 -5.74745 475.51 -5.324C471.701 -4.84365 468.087 -5.54104 464.692 -7.31424C463.009 -8.19654 461.356 -9.12766 459.688 -10.0308C455.14 -12.4945 450.276 -13.808 445.108 -13.9348C441.198 -14.0351 437.442 -13.3147 433.812 -11.8107C428.962 -9.79877 424.525 -7.09709 420.406 -3.85427C417.276 -1.39002 414.795 1.61022 412.943 5.15256C411.464 7.97939 410.246 10.9199 409.098 13.8927C408.487 15.4744 407.926 17.0729 407.266 18.6306C406.712 19.9345 406.114 21.2362 405.413 22.468C403.883 25.1556 401.625 27.0226 398.714 28.1016C395.848 29.1685 392.89 29.8854 389.89 30.4562C385.843 31.227 382.125 32.7769 378.753 35.1717C375.717 37.3311 373.323 40.0406 371.514 43.2829C369.919 46.1399 368.839 49.2024 367.97 52.3473C367.145 55.3505 366.341 58.3619 365.473 61.3486C364.996 62.973 364.435 64.5715 363.838 66.1539C363.408 67.2912 362.906 68.4105 362.363 69.4991C359.599 75.0184 354.946 78.0044 349.028 79.0711C346.24 79.5732 343.377 79.6903 340.548 79.9818C332.237 80.8434 324.814 83.8072 318.42 89.2616C315.316 91.9071 312.454 94.7733 309.948 97.9954C304.905 104.488 300.65 111.488 296.577 118.605C295.434 120.606 294.334 122.624 293.556 124.81C293.447 125.121 293.345 125.44 293.091 126.197L293.113 126.191ZM499.122 36.4711C498.737 36.6823 498.477 36.8493 498.19 36.979C494.592 38.5565 491.556 40.8743 489.038 43.8871C485.39 48.2399 482.518 53.0414 480.795 58.4757C479.958 61.1185 479.228 63.8025 478.655 66.5087C477.726 70.8741 476.968 75.2767 476.138 79.6686C475.681 82.0711 475.06 84.4223 474.099 86.6775C472.74 89.8557 471.275 92.9855 469.438 95.9169C465.249 102.618 459.401 107.207 451.766 109.369C448.299 110.355 444.699 110.529 441.102 110.509C440.98 110.503 440.862 110.418 440.664 110.344C440.819 110.114 440.932 109.868 441.114 109.682C442.325 108.476 443.245 107.06 444.109 105.599C446.049 102.328 447.707 98.9195 449.078 95.3749C451.01 90.3684 452.375 85.1971 453.27 79.9161C454.136 74.7776 454.86 69.6177 455.605 64.466C456.162 60.6435 456.853 56.8564 457.823 53.1192C459.049 48.4231 461.071 44.0832 463.775 40.0577C464.987 38.2468 466.386 36.589 468.067 35.2043C471.675 32.2456 475.677 30.7889 480.473 31.4514C486.684 32.3135 492.643 34.0412 498.561 36.0115C498.724 36.0628 498.845 36.2343 499.129 36.4714L499.122 36.4711ZM463.139 32.1245C463.047 32.5301 463.05 32.6095 463.012 32.6508C462.836 32.8579 462.654 33.0576 462.457 33.2421C456.772 38.6166 452.943 45.1625 450.341 52.4819C448.978 56.3147 448.006 60.2533 447.082 64.216C445.902 69.2885 444.665 74.3511 443.365 79.396C442.331 83.3964 440.93 87.2849 439.315 91.0982C438.133 93.9109 436.739 96.6196 435.079 99.1855C432.958 102.47 430.296 105.216 427.036 107.394C425.734 108.257 424.451 108.582 422.84 108.272C418.441 107.435 414.092 107.774 409.802 109.115C407.338 109.885 404.96 110.832 402.663 112.014C401.792 112.46 401.784 112.46 400.877 112.472C401.022 112.307 401.145 112.147 401.282 112.003C408.895 104.177 413.69 94.8431 416.137 84.249C417.025 80.4213 417.57 76.5335 418.13 72.6536C418.571 69.5737 419.083 66.5047 419.687 63.4546C420.177 60.9889 421.07 58.6439 422.182 56.389C422.846 55.0403 423.677 53.8221 424.834 52.836C427.562 50.5101 430.201 48.0718 433.017 45.8582C441.172 39.4477 450.308 35.0288 460.408 32.6224C461.253 32.4196 462.115 32.3112 463.131 32.1313L463.139 32.1245ZM356.022 78.6551C356.68 78.1624 356.987 77.9042 357.322 77.6977C359.927 76.0997 361.92 73.9173 363.376 71.2621C364.216 69.7205 364.979 68.1176 365.571 66.4702C366.567 63.6697 367.506 60.8306 368.254 57.9531C368.644 56.4684 369.449 55.6087 370.753 55.0041C373.301 53.8279 375.97 53.1327 378.754 52.8534C382.711 52.4523 386.599 52.8395 390.411 53.9065C393.15 54.6757 395.839 55.5935 398.57 56.3982C401.358 57.2201 404.152 58.0495 406.974 58.7508C409.611 59.407 412.303 59.6916 415.025 59.51C415.278 59.4937 415.535 59.5353 415.98 59.5573C415.691 60.018 415.508 60.3615 415.277 60.6667C413.729 62.7201 412.187 64.781 410.618 66.8189C408.011 70.1943 405.391 73.5546 402.777 76.9296C402.192 77.685 401.527 78.3285 400.669 78.7969C397.023 80.7678 393.238 82.3576 389.151 83.22C382.671 84.5826 376.268 84.56 369.886 82.6459C365.418 81.3089 361.071 79.582 356.021 78.6695L356.022 78.6551ZM477.032 29.0066C477.005 29.1132 476.971 29.2195 476.944 29.3189C476.62 29.3172 476.297 29.3156 475.973 29.3211C473.877 29.3467 471.778 29.3002 469.685 29.4266C465.209 29.7084 460.844 30.6577 456.526 31.8181C455.454 32.1032 454.421 32.1815 453.326 32.0552C450.214 31.6922 447.2 30.9454 444.292 29.7936C442.408 29.0453 440.525 28.2682 438.657 27.4704C433.485 25.2564 428.195 23.382 422.694 22.1305C418.382 21.1466 414.042 20.5643 409.613 20.9204C409.237 20.9521 408.854 20.8467 408.475 20.8063C408.487 20.5623 408.458 20.4169 408.5 20.2967C409.884 16.7671 411.183 13.2045 412.694 9.73157C413.661 7.50544 414.938 5.40983 416.081 3.26439C416.858 1.80609 418.114 1.01198 419.685 0.528587C424.391 -0.914779 429.131 -1.01072 433.926 -0.0460449C439 0.975593 443.492 3.25661 447.669 6.24161C451.923 9.28078 455.749 12.8097 459.513 16.4219C461.464 18.2962 463.453 20.1364 465.488 21.9141C468.46 24.5155 471.791 26.5805 475.394 28.213C475.943 28.4633 476.476 28.7416 477.017 29.0059L477.032 29.0066ZM369.436 54.7085C369.375 54.3457 369.303 54.2054 369.33 54.0916C370.096 50.9919 371.066 47.9671 372.51 45.1098C373.524 43.1019 374.732 41.226 376.302 39.6126C376.908 38.995 377.6 38.4032 378.354 37.9945C379.544 37.3554 380.801 36.8349 382.063 36.3505C389.068 33.6826 396.344 32.8057 403.807 33.0895C410.867 33.3605 417.808 34.446 424.721 35.8251C429.702 36.8206 434.675 37.8229 439.75 38.2257C439.944 38.2353 440.127 38.3236 440.489 38.4207C440.179 38.7148 439.979 38.9711 439.726 39.1457C437.866 40.3776 435.938 41.5126 434.131 42.8334C428.486 46.9577 423.222 51.5254 418.607 56.7946C417.531 58.0223 416.327 58.6534 414.751 58.6544C413.47 58.6556 412.181 58.6708 410.906 58.55C407.79 58.2659 404.778 57.4761 401.794 56.5509C398.754 55.6013 395.73 54.6093 392.689 53.6741C390.159 52.8937 387.591 52.2914 384.947 52.0451C380.012 51.5844 375.211 52.0372 370.664 54.1865C370.303 54.3557 369.929 54.4955 369.415 54.7075L369.436 54.7085ZM299.519 117.175C299.751 116.697 299.916 116.273 300.151 115.889C301.272 114.038 302.394 112.179 303.542 110.343C306.129 106.211 308.821 102.149 311.888 98.3434C314.066 95.6448 316.531 93.2483 319.093 90.9286C321.014 89.1888 323.219 88.1108 325.694 87.5498C327.273 87.1892 328.878 86.8946 330.492 86.7227C336.33 86.0983 342.113 86.601 347.838 87.8205C351.214 88.5421 354.58 89.2991 357.946 90.0706C362.108 91.0255 366.312 91.7377 370.539 92.264C374.108 92.7073 377.684 92.863 381.268 92.4147C382.601 92.2505 383.935 92.0504 385.268 91.8718C384.94 92.3881 384.549 92.7214 384.099 92.9437C378.179 95.9317 371.911 97.8229 365.379 98.7943C360.492 99.5235 355.547 99.7028 350.605 99.7959C346.413 99.8759 342.216 99.7613 338.025 99.8053C333.748 99.8522 329.51 100.283 325.345 101.249C320.264 102.429 315.745 104.875 311.404 107.675C307.575 110.14 304.126 113.078 300.902 116.279C300.546 116.636 300.295 117.192 299.527 117.168L299.519 117.175ZM496.715 33.1925C496.48 33.2959 496.351 33.4119 496.266 33.3861C494.586 32.871 492.858 32.4614 491.244 31.7769C487.042 30.0141 483.11 27.7465 479.545 24.8998C475.15 21.3786 471.066 17.5418 467.475 13.1826C465.412 10.6766 463.341 8.17031 461.142 5.77998C454.027 -1.95647 445.483 -7.28104 435.098 -9.4441C434.806 -9.50177 434.525 -9.63805 434.199 -9.75493C434.347 -9.98506 434.391 -10.1412 434.487 -10.1797C436.756 -11.0962 439.086 -11.801 441.524 -12.0543C447.42 -12.6687 452.976 -11.5151 458.233 -8.83639C459.798 -8.03911 461.315 -7.13629 462.872 -6.31065C465.031 -5.16006 467.281 -4.24245 469.689 -3.74163C470.473 -3.58042 471.242 -3.26882 471.957 -2.90228C475.425 -1.13988 478.032 1.57296 480.229 4.7332C482.009 7.29706 483.463 10.0534 484.784 12.868C486.366 16.2353 487.881 19.6424 489.506 22.9902C491.172 26.4119 493.164 29.6268 495.917 32.3037C496.192 32.5692 496.421 32.8757 496.701 33.1918L496.715 33.1925ZM521.581 42.4354C521.582 42.565 521.59 42.6949 521.591 42.8173C521.27 42.9093 520.948 43.0085 520.627 43.1005C516.283 44.3388 512.843 46.8093 510.368 50.587C509.402 52.0576 508.465 53.5439 507.569 55.0611C506.225 57.3477 504.418 59.1147 501.989 60.1961C500.878 60.6879 499.76 61.1722 498.611 61.5614C496.818 62.1705 494.981 62.6479 493.187 63.2714C491.656 63.8072 490.124 64.3789 488.677 65.0988C485.63 66.61 483.236 68.8805 481.536 71.8187C480.348 73.8683 479.307 75.9972 478.196 78.0866C477.933 78.5846 477.636 79.0664 477.36 79.5564C477.157 79.0138 477.193 78.5623 477.28 78.1204C477.993 74.3344 478.692 70.5406 479.434 66.756C479.722 65.2951 480.068 63.8441 480.434 62.4086C482.135 55.8219 485.1 49.8735 489.469 44.6353C490.908 42.9075 492.503 41.3603 494.351 40.0774C496.133 38.8344 497.994 37.7393 500.116 37.1609C500.853 36.96 501.553 36.9155 502.296 37.1898C504.014 37.8076 505.765 38.3406 507.484 38.944C511.642 40.4168 515.89 41.5343 520.265 42.1255C520.708 42.1834 521.148 42.3132 521.582 42.4139L521.581 42.4354ZM426.61 108.884C426.747 108.581 426.758 108.502 426.803 108.469C427.019 108.314 427.25 108.167 427.473 108.02C431.084 105.723 433.913 102.668 436.151 99.0444C437.685 96.5585 439.015 93.969 440.141 91.2759C441.709 87.5251 443.101 83.7008 444.117 79.7572C445.435 74.6411 446.633 69.4975 447.923 64.38C448.748 61.0962 449.581 57.8127 450.533 54.5711C451.642 50.7904 453.273 47.2083 455.227 43.7862C457.561 39.692 460.51 36.0961 464.013 32.9378C465.127 31.9353 466.384 31.4075 467.85 31.3003C469.136 31.2057 470.416 31.0893 471.7 31.0234C472.032 31.0039 472.377 31.1506 473.061 31.2925C468.619 33.0728 465.546 35.9645 463.108 39.5641C460.351 43.6373 458.291 48.0329 457.054 52.8076C456.208 56.0904 455.504 59.3946 455.028 62.7534C454.409 67.1125 453.761 71.463 453.121 75.8139C452.371 80.915 451.294 85.9423 449.769 90.8682C448.116 96.1979 445.807 101.243 442.894 106C442.112 107.271 441.239 108.472 440.11 109.474C439.259 110.224 438.342 110.588 437.157 110.529C434.107 110.364 431.099 109.92 428.116 109.268C427.661 109.166 427.221 109.036 426.624 108.884L426.61 108.884ZM369.665 99.8633C369.552 100.253 369.552 100.412 369.476 100.487C367.464 102.611 365.923 105.082 364.272 107.476C362.853 109.536 361.44 111.61 359.875 113.555C356.432 117.839 352.255 121.23 347.142 123.344C342.549 125.246 337.779 125.945 332.841 125.247C331.691 125.082 330.607 124.74 329.592 124.164C327.709 123.1 325.795 122.076 323.904 121.025C323.638 120.875 323.24 120.784 323.362 120.2C323.67 120.085 324.03 119.931 324.403 119.812C326.289 119.229 328.05 118.388 329.741 117.378C335.986 113.644 341.178 108.777 345.456 102.916C345.772 102.485 346.103 102.063 346.426 101.64C354.186 101.442 361.886 101.313 369.666 99.8561L369.665 99.8633ZM380.71 121.806C381.484 121.29 381.937 121.011 382.37 120.701C383.789 119.663 385.303 118.738 386.592 117.557C395.456 109.476 401.703 99.7395 404.87 88.116C405.547 85.638 406.047 83.108 406.56 80.5931C407.102 77.9357 407.715 75.2963 408.768 72.7937C409.11 71.9903 409.516 71.1901 410.026 70.4885C412.025 67.7594 414.06 65.0465 416.128 62.3713C417.243 60.9297 418.47 59.5656 419.661 58.1783C419.852 57.9574 420.043 57.5927 420.437 57.9073C420.416 58.0502 420.423 58.1873 420.381 58.3147C418.918 62.1354 418.152 66.1131 417.607 70.1448C417.278 72.5609 416.964 74.9706 416.6 77.3777C415.392 85.4786 413.144 93.24 408.99 100.367C404.153 108.677 397.911 115.542 389.082 119.731C387.858 120.311 386.615 120.861 385.335 121.273C383.997 121.703 382.611 122.073 380.696 121.798L380.71 121.806ZM482.596 -4.5336C484.327 -4.75719 485.856 -4.98358 487.397 -5.14465C491 -5.5201 494.566 -5.31442 498.067 -4.37076C499.168 -4.07149 500.255 -3.64336 501.281 -3.15347C502.694 -2.47889 503.573 -1.32707 504.037 0.185647C504.571 1.90329 504.65 3.65592 504.498 5.41152C504.312 7.56843 504.004 9.7121 503.796 11.8679C503.623 13.6153 503.428 15.3688 503.384 17.1225C503.313 20.2998 504.101 23.2822 505.639 26.0716C508.822 31.8427 513.088 36.5161 519.118 39.4131C519.364 39.5333 519.603 39.6602 519.818 39.8148C519.902 39.8765 519.931 40.0147 519.99 40.1184C519.872 40.1773 519.752 40.2865 519.644 40.274C516.326 39.8575 513.163 39.053 510.267 37.2326C507.14 35.2712 504.196 33.1173 501.975 30.1574C500.436 28.1092 499.062 25.9181 497.776 23.7026C495.323 19.4646 493.812 14.8127 492.051 10.2707C491.171 8.00335 490.261 5.73454 489.16 3.57134C487.711 0.721632 485.89 -1.88743 483.228 -3.78978C483.033 -3.92897 482.902 -4.17299 482.596 -4.54078L482.596 -4.5336ZM401.226 81.7751C401.211 82.091 401.251 82.2873 401.193 82.4499C399.964 86.0376 398.729 89.6177 397.501 93.1982C395.416 99.2478 392.046 104.514 387.698 109.17C383.404 113.772 378.429 117.44 372.633 119.966C371.861 120.302 371.117 120.496 370.285 120.44C368.177 120.292 366.101 120.506 364.047 120.994C363.953 121.018 363.836 120.904 363.723 120.856C363.712 120.798 363.666 120.709 363.689 120.674C363.889 120.411 364.076 120.132 364.31 119.906C367.348 116.984 369.978 113.732 372.234 110.174C373.21 108.632 374.145 107.052 375.19 105.563C376.552 103.63 377.936 101.698 379.444 99.8805C381.748 97.1018 384.495 94.8272 387.637 93.004C389.208 92.0888 390.713 91.0409 392.185 89.9624C394.971 87.9129 397.484 85.5547 399.841 83.0161C400.229 82.5964 400.55 82.0726 401.226 81.7823L401.226 81.7751ZM452.144 32.8314C452.138 32.9534 452.132 33.0683 452.126 33.1903C450.325 33.943 448.492 34.6365 446.737 35.485C445.749 35.9613 444.838 36.0457 443.809 35.75C442.774 35.4467 441.704 35.2425 440.651 34.996C433.593 33.3794 426.543 31.72 419.475 30.1532C413.901 28.9196 408.27 28.2661 402.55 28.9683C402.34 28.9939 402.117 28.8605 401.84 28.782C403.046 27.676 404.236 26.7635 405.204 25.6601C406.219 24.5014 407.027 23.1597 407.948 21.8525C408.26 21.8032 408.587 21.7259 408.919 21.7064C412.304 21.5072 415.68 21.6387 419.026 22.2364C424.782 23.2632 430.341 24.9493 435.743 27.1675C438.31 28.2232 440.861 29.314 443.436 30.3557C445.955 31.373 448.535 32.1774 451.227 32.5988C451.534 32.65 451.838 32.7586 452.143 32.8385L452.144 32.8314ZM341.287 101.665C340.79 102.252 340.512 102.627 340.193 102.964C337.342 105.896 334.024 108.214 330.518 110.278C326.641 112.554 322.474 114.154 318.094 115.131C313.4 116.179 308.854 117.731 304.229 118.999C302.995 119.341 301.811 119.858 300.603 120.287C300.324 120.388 300.033 120.46 299.719 120.553C299.7 120.343 299.661 120.255 299.692 120.213C299.833 119.99 299.974 119.752 300.149 119.559C305.132 114.143 310.798 109.588 317.343 106.177C319.981 104.797 322.716 103.623 325.642 102.962C328.881 102.223 332.169 101.81 335.474 101.629C337.285 101.532 339.099 101.377 341.279 101.665L341.287 101.665ZM325.88 86.5444C325.834 86.4557 325.796 86.3603 325.75 86.2716C326.518 85.8708 327.281 85.448 328.07 85.0625C331.204 83.5412 334.542 82.6921 337.954 82.0841C342.754 81.2283 347.519 81.1912 352.261 82.3762C355.218 83.113 358.166 83.8853 361.096 84.7287C364.744 85.7732 368.418 86.711 372.157 87.3499C375.439 87.9157 378.747 88.1157 382.072 87.964C385.606 87.8082 389.057 87.1518 392.399 85.9358C393.11 85.676 393.813 85.2791 394.934 85.3059C393.665 86.6607 392.385 87.5183 391.227 88.5188C389.851 89.7099 388.265 90.3509 386.504 90.7314C381.223 91.8727 375.92 92.1495 370.558 91.4445C365.989 90.8437 361.459 90.0433 356.969 89.0074C353.141 88.1267 349.303 87.3031 345.447 86.5505C340.501 85.5855 335.501 85.4095 330.483 85.8875C328.943 86.0342 327.41 86.3252 325.873 86.544L325.88 86.5444ZM507.892 36.8053C507.851 36.9112 507.809 37.0171 507.768 37.123C507.398 37.0327 507.028 36.9568 506.667 36.8381C504.932 36.2699 503.207 35.6446 501.455 35.1259C500.122 34.7288 499.005 34.0257 497.978 33.1112C495.635 31.0232 493.667 28.637 492.059 25.945C489.932 22.3924 488.373 18.5657 486.63 14.8235C484.971 11.2653 483.283 7.72727 481.055 4.47192C479.163 1.70818 476.974 -0.746396 474.129 -2.5715C473.857 -2.7505 473.624 -2.99233 473.196 -3.35181C473.941 -3.43718 474.462 -3.4905 474.991 -3.55066C476.467 -3.71492 477.962 -3.82069 479.421 -4.07217C480.43 -4.24522 481.284 -4.05892 482.129 -3.54204C483.414 -2.75865 484.494 -1.74079 485.443 -0.578226C487.174 1.52981 488.578 3.84472 489.612 6.35719C490.877 9.42089 492.069 12.5241 493.196 15.6385C494.487 19.2144 496.138 22.621 498.041 25.9034C500.408 29.9861 503.338 33.5857 507.277 36.2855C507.5 36.4333 507.685 36.6295 507.892 36.8053ZM478.703 28.3914C474.197 26.9518 470.16 24.7869 466.625 21.7618C464.471 19.9134 462.402 17.9541 460.302 16.0437C457.596 13.585 454.95 11.0717 452.183 8.68196C449.305 6.20038 446.212 3.98881 442.822 2.26622C435.619 -1.38698 428.111 -2.64453 420.2 -0.431761C419.989 -0.370299 419.696 -0.140108 419.468 -0.604834C419.666 -0.825299 419.852 -1.09672 420.099 -1.30034C421.143 -2.16255 422.213 -2.98745 423.242 -3.86474C424.384 -4.83719 425.712 -5.19594 427.176 -5.26724C430.653 -5.43303 434.07 -5.11244 437.427 -4.1759C442.19 -2.84581 446.459 -0.554306 450.354 2.46706C453.465 4.88107 456.326 7.55613 459.042 10.4039C461.382 12.8516 463.677 15.3259 465.994 17.8012C469.575 21.6274 473.577 24.942 477.924 27.849C478.196 28.028 478.46 28.2139 478.724 28.3997L478.703 28.3914ZM406.916 75.1487C406.477 77.1923 406.037 79.2431 405.59 81.2863C405.153 83.2724 404.767 85.2611 404.252 87.2289C401.198 98.8941 395.028 108.663 386.204 116.811C384.304 118.566 382.147 119.963 379.937 121.286C379.262 121.691 378.585 121.859 377.808 121.691C376.619 121.438 375.413 121.234 374.224 120.981C374.003 120.934 373.812 120.73 373.519 120.543C375.316 119.56 377.026 118.745 378.609 117.73C387.596 111.958 394.24 104.234 398 94.1585C399.112 91.1768 400.019 88.1201 401.124 85.138C401.922 82.9826 402.854 80.8771 403.793 78.7791C404.457 77.2936 405.6 76.1557 406.917 75.1415L406.916 75.1487ZM484.035 29.1309C483.979 29.236 483.917 29.3337 483.861 29.4389C483.548 29.3658 483.219 29.3207 482.915 29.2193C480.649 28.4664 478.551 27.3836 476.613 25.9777C472.765 23.1818 469.221 20.0626 465.953 16.5974C462.521 12.9513 459.044 9.33893 455.484 5.816C452.781 3.1416 449.788 0.805427 446.502 -1.13508C441.021 -4.37907 435.138 -6.18931 428.73 -6.11854C428.29 -6.11154 427.845 -6.13362 427.141 -6.15415C427.498 -6.52507 427.638 -6.74838 427.846 -6.87481C428.661 -7.35252 429.537 -7.74806 430.319 -8.2778C431.346 -8.96808 432.42 -9.1451 433.609 -8.88464C434.207 -8.75423 434.815 -8.6809 435.406 -8.54366C440.267 -7.44621 444.855 -5.65698 449.124 -3.06325C453.497 -0.406747 457.403 2.82389 460.805 6.63403C462.966 9.05847 465.029 11.5716 467.122 14.0574C471.819 19.6301 477.132 24.521 483.229 28.544C483.501 28.723 483.757 28.9371 484.02 29.1301L484.035 29.1309ZM334.995 126.375C335.391 126.366 335.788 126.35 336.176 126.348C343.13 126.318 349.307 124.084 354.759 119.792C357.979 117.26 360.656 114.22 362.974 110.859C364.393 108.799 365.785 106.716 367.197 104.642C368.268 103.068 369.484 101.625 370.887 100.334C371.747 99.5419 372.678 98.9044 373.855 98.675C374.385 98.5717 374.892 98.3666 375.423 98.249C375.641 98.2023 375.884 98.2503 376.358 98.2594C373.869 101.864 371.57 105.276 369.173 108.619C367.913 110.377 366.528 112.05 365.108 113.685C361.811 117.486 358.056 120.776 353.818 123.517C350.793 125.468 347.637 127.146 344.205 128.279C343.51 128.511 342.75 128.753 342.04 128.704C339.53 128.529 337.147 127.814 334.994 126.383L334.995 126.375ZM443.613 36.6685C443.003 37.5019 442.399 37.4935 441.79 37.4417C439.568 37.2524 437.327 37.17 435.12 36.8374C431.577 36.2947 428.048 35.6231 424.527 34.9304C418.077 33.6677 411.594 32.6337 405.018 32.3076C398.687 31.9935 392.434 32.4174 386.298 34.0994C385.007 34.4527 383.734 34.8574 382.025 35.3627C382.822 34.8194 383.231 34.4222 383.715 34.2375C385.226 33.6576 386.745 33.0565 388.313 32.6377C390.604 32.0244 392.954 31.6516 395.237 31.0308C398.724 30.0811 402.289 29.7398 405.874 29.5578C410.441 29.3309 414.935 29.9856 419.37 30.9684C426.972 32.6624 434.555 34.4418 442.139 36.1925C442.581 36.2935 443.011 36.466 443.606 36.661L443.613 36.6685ZM345.222 101.681C344.701 102.468 344.433 102.93 344.11 103.353C340.294 108.338 335.801 112.577 330.502 115.962C328.095 117.498 325.571 118.755 322.799 119.502C321.909 119.746 321.125 119.736 320.258 119.369C318.13 118.465 315.914 117.88 313.588 117.757C313.358 117.746 313.136 117.577 312.601 117.349C314.312 116.937 315.688 116.624 317.059 116.267C320.981 115.238 324.886 114.144 328.526 112.281C333.68 109.636 338.362 106.364 342.234 102.007C342.364 101.856 342.535 101.742 342.768 101.545C343.428 101.577 344.146 101.613 345.237 101.681L345.222 101.681ZM399.455 80.4855C398.628 81.7758 397.735 82.3791 396.829 82.9531C393.686 84.9418 390.193 85.9992 386.571 86.6399C381.583 87.5223 376.581 87.375 371.635 86.4029C368.45 85.7771 365.302 84.9517 362.154 84.1623C358.479 83.2316 354.822 82.2442 351.157 81.278C350.858 81.1984 350.569 81.0833 349.988 80.889C350.943 80.3607 351.766 80.3079 352.459 79.9753C353.955 79.2651 355.485 79.3194 357.021 79.705C358.99 80.1912 360.949 80.7274 362.893 81.3059C365.687 82.1282 368.431 83.1063 371.244 83.8431C379.45 85.9916 387.48 85.1449 395.348 82.1816C396.61 81.7044 397.839 81.1609 399.44 80.4991L399.455 80.4855ZM381.441 96.3238C381.239 96.6376 381.165 96.821 381.029 96.951C378.26 99.6707 375.949 102.744 373.886 106.024C372.84 107.685 371.8 109.346 370.704 110.976C368.164 114.757 365.223 118.195 361.682 121.086C360.955 121.676 360.139 122.175 359.304 122.608C357.029 123.798 354.739 124.973 352.418 126.067C351.092 126.692 349.847 127.558 348.218 127.751C348.414 127.588 348.498 127.477 348.616 127.418C353.863 124.8 358.597 121.479 362.774 117.354C366.452 113.723 369.589 109.661 372.478 105.393C373.69 103.596 374.909 101.807 376.12 100.011C377.324 98.2281 378.778 96.7746 380.982 96.3082C381.04 96.2967 381.111 96.3146 381.427 96.3159L381.441 96.3238Z" fill="#A38257" fill-opacity="0.15"/>
<path d="M379.207 135.138C383.677 132.071 387.407 128.543 390.604 124.441C392.564 121.926 394.369 119.324 395.835 116.482C397.412 113.415 397.653 110.29 396.496 107.073C395.907 105.439 395.268 103.81 394.474 102.266C392.387 98.219 390.218 94.2038 388.042 90.2026C385.746 85.9868 383.458 81.7713 381.628 77.3267C379.766 72.7869 378.573 68.1076 378.342 63.1882C378.2 60.101 378.559 57.0819 379.426 54.1096C380.709 49.7186 382.951 45.8502 385.741 42.268C387.916 39.4757 390.14 36.7146 392.267 33.8839C394.316 31.1574 395.649 28.0858 396.219 24.7102C396.506 22.9972 396.771 21.276 397.029 19.5545C397.697 15.097 398.492 10.6746 399.707 6.33069C401.909 -1.49062 405.988 -8.14652 411.906 -13.7109C416.677 -18.2024 422.271 -21.005 428.73 -22.0952C432.235 -22.6842 435.769 -22.8327 439.32 -22.7574C443.655 -22.6575 447.938 -22.1069 452.228 -21.5415C460.064 -20.5051 467.916 -20.5187 475.783 -20.9777C479.204 -21.1751 482.591 -21.7123 485.925 -22.4897C489.26 -23.2598 492.545 -24.2123 495.867 -25.0263C502.598 -26.6715 509.431 -27.6135 516.349 -27.9325C519.104 -28.0622 521.871 -27.9969 524.634 -27.975C525.224 -27.9745 525.814 -27.8301 526.382 -27.6796C526.531 -27.6362 526.695 -27.3043 526.692 -27.1029C526.689 -26.9016 526.54 -26.6427 526.375 -26.5213C526.203 -26.3931 525.928 -26.3492 525.698 -26.3534C525.159 -26.3658 524.623 -26.4499 524.084 -26.4622C512.823 -26.7833 501.803 -25.286 490.997 -22.159C484.324 -20.2303 478.066 -17.3886 472.314 -13.4423C468.85 -11.0666 465.883 -8.25602 463.709 -4.62167C461.442 -0.840838 460.363 3.20047 460.915 7.60328C461.112 9.14589 461.417 10.6795 461.803 12.1883C462.362 14.4109 463.42 16.4424 464.493 18.4603C466.211 21.6903 467.995 24.8877 469.573 28.19C474.866 39.2832 475.832 50.867 473.21 62.8054C472.55 65.8096 471.509 68.6797 470.057 71.3999C468.621 74.0778 466.82 76.4496 464.361 78.2779C461.447 80.4507 458.151 81.6185 454.53 81.9211C452.247 82.1101 449.966 81.9538 447.707 81.6618C445.626 81.3931 443.549 81.0454 441.459 80.8123C440.092 80.6581 438.703 80.5244 437.332 80.586C433.228 80.7711 429.999 82.6187 427.61 85.9545C426.048 88.1367 425.084 90.5861 424.545 93.2004C424.184 94.9601 423.944 96.7545 423.604 98.5224C423.333 99.9338 423.075 101.36 422.675 102.737C421.825 105.659 419.95 107.768 417.242 109.124C416.6 109.445 415.918 109.691 415.251 109.946C414.576 110.201 413.895 110.433 413.208 110.658C409.857 111.766 407.362 113.887 405.669 116.977C404.862 118.448 404.062 119.927 403.234 121.39C401.358 124.672 398.939 127.459 395.715 129.487C390.82 132.562 385.512 134.537 379.768 135.288C379.659 135.304 379.54 135.227 379.2 135.131L379.207 135.138Z" fill="#A5845A" fill-opacity="0.11"/>
</g>
<defs>
<clipPath id="clip0_9_133">
<rect width="500" height="300" fill="white"/>
</clipPath>
</defs>
</svg>
