<svg width="512" height="512" viewBox="0 0 512 512" fill="none" xmlns="http://www.w3.org/2000/svg">
<g clip-path="url(#clip0_1_86)">
<path d="M485.684 246.624L396.423 126.763C392.299 121.226 385.974 118.05 379.07 118.05C372.167 118.05 365.842 121.226 361.717 126.763L326.538 174.002L212.576 20.9742C207.409 14.0345 199.482 10.0547 190.83 10.0547C182.178 10.0547 174.251 14.0345 169.083 20.9742L64.6744 161.176C61.3765 165.604 62.2925 171.869 66.7223 175.168C71.1501 178.466 77.4159 177.55 80.7147 173.12L185.123 32.9187C186.479 31.0978 188.559 30.0539 190.83 30.0539C193.1 30.0539 195.18 31.0978 196.536 32.9187L314.07 190.744L272.456 246.624C253.396 272.218 244.175 303.841 246.491 335.668C248.807 367.496 262.51 397.451 285.074 420.016C291.631 426.573 298.709 432.296 306.173 437.193C239.242 498.547 134.869 496.825 70.0512 432.006C45.8901 407.845 29.6798 377.38 23.1721 343.902C16.7613 310.922 20.1102 277.136 32.8587 246.198C34.9626 241.092 32.5287 235.246 27.4229 233.143C22.3171 231.037 16.4724 233.473 14.3684 238.578C0.125024 273.147 -3.61982 310.886 3.54088 347.719C10.8116 385.123 28.9208 419.16 55.9097 446.149C93.1072 483.346 141.968 501.945 190.829 501.945C239.191 501.945 287.545 483.712 324.598 447.272C341.872 455.009 360.469 458.887 379.07 458.887C413.111 458.887 447.151 445.93 473.066 420.015C495.631 397.45 509.333 367.495 511.649 335.667C513.966 303.841 504.744 272.218 485.684 246.624ZM491.703 334.216C489.735 361.255 478.094 386.704 458.924 405.873C414.893 449.906 343.248 449.906 299.217 405.873C280.047 386.704 268.406 361.255 266.438 334.216C264.47 307.178 272.304 280.312 288.497 258.569L377.759 138.708C378.085 138.27 378.527 138.049 379.071 138.049C379.616 138.049 380.058 138.271 380.384 138.708L469.646 258.569C485.837 280.313 493.671 307.178 491.703 334.216Z" fill="#325956"/>
<path d="M397.188 283.378L373.798 306.769L370.826 303.796C359.129 292.1 340.098 292.1 328.401 303.796C316.704 315.492 316.704 334.524 328.401 346.221L352.586 370.406C358.252 376.072 365.785 379.193 373.798 379.193C381.81 379.193 389.344 376.072 395.01 370.406L439.612 325.804C451.309 314.107 451.309 295.076 439.612 283.379C427.915 271.681 408.884 271.681 397.188 283.378ZM425.471 311.661L380.868 356.263C378.979 358.152 376.469 359.192 373.798 359.192C371.127 359.192 368.616 358.152 366.727 356.263L342.542 332.078C338.643 328.179 338.643 321.835 342.542 317.936C344.431 316.047 346.942 315.007 349.613 315.007C352.284 315.007 354.794 316.047 356.683 317.936L366.726 327.979C370.631 331.884 376.963 331.884 380.868 327.979L411.329 297.518C415.227 293.619 421.572 293.619 425.471 297.518C429.37 301.418 429.37 307.762 425.471 311.661Z" fill="#325956"/>
<path d="M45.8306 213.249C51.3534 213.249 55.8306 208.772 55.8306 203.249C55.8306 197.726 51.3534 193.249 45.8306 193.249C40.3077 193.249 35.8306 197.726 35.8306 203.249C35.8306 208.772 40.3077 213.249 45.8306 213.249Z" fill="#325956"/>
</g>
<defs>
<clipPath id="clip0_1_86">
<rect width="512" height="512" fill="white"/>
</clipPath>
</defs>
</svg>
