<svg xmlns="http://www.w3.org/2000/svg" viewBox="0 0 32 32" width="100%" height="100%">
  <title>eco</title>
  <g fill="#335952">
    <path d="M4.88,27.84a13.62,13.62,0,0,1-.82-15.58A13.66,13.66,0,0,1,6,9.81,15,15,0,0,1,8.52,7.92a32.26,32.26,0,0,1,9.35-4A79.8,79.8,0,0,1,30,2c-.29,6.66-1.24,13.43-4.27,19.37a16.48,16.48,0,0,1-6.09,7,14.45,14.45,0,0,1-11.06,1c.36.09,1.76-3.63,1.91-4a29.73,29.73,0,0,1,3.48-6q.85-1.14,1.78-2.22.47-.55,1-1.08c.23-.25.65-.89,1-1a18.48,18.48,0,0,0-7.45,5.29A56.49,56.49,0,0,0,4.88,27.84Z"/>
  </g>
</svg>