<svg width="512" height="512" viewBox="0 0 512 512" fill="none" xmlns="http://www.w3.org/2000/svg">
<g clip-path="url(#clip0_1_220)">
<path d="M479.371 278.566C467.459 266.652 450.986 260.183 434.188 260.829C384.776 262.714 338.298 283.017 303.315 318C281.429 339.885 265.451 366.002 255.996 394.227C246.54 366.003 230.57 339.885 208.685 318C204.373 313.689 199.822 309.54 195.156 305.666C190.909 302.14 184.605 302.723 181.076 306.972C177.549 311.22 178.133 317.525 182.382 321.052C186.574 324.533 190.667 328.264 194.543 332.141C232.941 370.538 251.067 423.45 244.839 476.636L200.079 431.876V388.696C200.079 383.173 195.602 378.697 190.08 378.697C184.558 378.697 180.081 383.173 180.081 388.696V411.879L154.598 386.396V347.982C154.598 342.459 150.122 337.983 144.6 337.983C139.077 337.983 134.601 342.459 134.601 347.982V366.398L111.016 342.813C107.111 338.909 100.78 338.909 96.8748 342.813C92.9693 346.718 92.9703 353.049 96.8748 356.955L120.254 380.334H102.248C96.7258 380.334 92.2494 384.81 92.2494 390.332C92.2494 395.855 96.7258 400.331 102.248 400.331H140.251L165.734 425.814H142.962C137.44 425.814 132.963 430.29 132.963 435.813C132.963 441.335 137.44 445.811 142.962 445.811H185.732L230.697 490.777C177.512 497.003 124.598 478.879 86.2011 440.481C54.7931 409.073 36.5644 367.346 34.8727 322.987C34.4367 311.565 38.6612 300.811 46.7671 292.706C54.8721 284.6 65.6317 280.369 77.0483 280.811C86.8451 281.185 96.6708 282.385 106.252 284.377C111.654 285.501 116.952 282.029 118.076 276.623C119.2 271.216 115.728 265.922 110.322 264.798C99.6544 262.581 88.7168 261.245 77.8102 260.829C61.0203 260.183 44.5404 266.653 32.6269 278.566C20.7135 290.478 14.2493 306.947 14.8902 323.749C16.775 373.161 37.0784 419.639 72.0609 454.622C109.306 491.867 158.8 512.003 210.084 512.001C222.731 512.001 235.492 510.775 248.201 508.279L248.928 509.007C250.881 510.96 253.44 511.936 255.999 511.936C258.557 511.936 261.117 510.96 263.069 509.007L263.797 508.279C276.506 510.776 289.262 512.001 301.913 512.001C353.193 512.001 402.694 491.863 439.936 454.622C474.919 419.64 495.222 373.162 497.107 323.749C497.749 306.947 491.285 290.478 479.371 278.566ZM477.126 322.986C475.434 367.346 457.205 409.073 425.797 440.48C387.4 478.877 334.486 497.004 281.301 490.776L326.267 445.81H369.036C374.559 445.81 379.035 441.334 379.035 435.812C379.035 430.289 374.559 425.813 369.036 425.813H346.264L371.747 400.33H409.75C415.272 400.33 419.749 395.854 419.749 390.331C419.749 384.809 415.272 380.333 409.75 380.333H391.744L415.123 356.954C419.028 353.049 419.028 346.718 415.123 342.812C411.219 338.907 404.888 338.908 400.982 342.812L377.397 366.397V347.981C377.397 342.458 372.921 337.982 367.398 337.982C361.876 337.982 357.4 342.458 357.4 347.981V386.395L331.918 411.878V388.695C331.918 383.172 327.441 378.696 321.919 378.696C316.397 378.696 311.92 383.172 311.92 388.695V431.875L267.16 476.635C260.932 423.449 279.058 370.537 317.456 332.14C348.864 300.732 390.59 282.503 434.95 280.811C446.365 280.375 457.126 284.6 465.231 292.706C473.337 300.811 477.561 311.565 477.126 322.986Z" fill="#325956"/>
<path d="M147.914 187.976H202.007V242.069C202.007 256.349 213.625 267.966 227.904 267.966H284.096C298.376 267.966 309.993 256.348 309.993 242.069V187.976H364.086C378.366 187.976 389.983 176.359 389.983 162.079V105.887C389.983 91.6064 378.365 79.9898 364.086 79.9898H309.993V25.8967C309.993 11.6165 298.375 0 284.096 0H227.904C213.624 0 202.007 11.6175 202.007 25.8967V79.9898H147.914C133.634 79.9898 122.018 91.6074 122.018 105.887V162.079C122.018 176.359 133.634 187.976 147.914 187.976ZM142.015 105.887C142.015 102.634 144.662 99.9873 147.914 99.9873H212.006C217.528 99.9873 222.005 95.5109 222.005 89.9886V25.8967C222.005 22.6441 224.652 19.9975 227.904 19.9975H284.096C287.349 19.9975 289.995 22.6441 289.995 25.8967V89.9886C289.995 95.5109 294.472 99.9873 299.994 99.9873H364.086C367.338 99.9873 369.985 102.634 369.985 105.887V162.079C369.985 165.332 367.338 167.979 364.086 167.979H299.994C294.472 167.979 289.995 172.455 289.995 177.977V242.069C289.995 245.322 287.349 247.969 284.096 247.969H227.904C224.652 247.969 222.005 245.322 222.005 242.069V177.977C222.005 172.455 217.528 167.979 212.006 167.979H147.914C144.662 167.979 142.015 165.332 142.015 162.079V105.887Z" fill="#325956"/>
<path d="M150.903 299.045C156.425 299.045 160.902 294.568 160.902 289.046C160.902 283.524 156.425 279.047 150.903 279.047C145.381 279.047 140.904 283.524 140.904 289.046C140.904 294.568 145.381 299.045 150.903 299.045Z" fill="#325956"/>
</g>
<defs>
<clipPath id="clip0_1_220">
<rect width="512" height="512" fill="white"/>
</clipPath>
</defs>
</svg>
