<svg width="512" height="512" viewBox="0 0 512 512" fill="none" xmlns="http://www.w3.org/2000/svg">
<g clip-path="url(#clip0_1_21)">
<path d="M466.866 72.214C437.762 43.1086 399.065 27.0794 357.904 27.0794C319.995 27.0794 284.174 40.6777 256.014 65.5643C233.749 45.8834 206.662 33.2301 177.108 28.7943C145.011 23.9776 112.834 29.1943 84.0614 43.8845C79.1427 46.3954 77.1908 52.419 79.7027 57.3378C82.2145 62.2575 88.2392 64.2094 93.1549 61.6965C118.187 48.9162 146.19 44.3775 174.14 48.5723C202.636 52.849 228.502 65.9143 248.943 86.3562C250.819 88.2311 253.362 89.285 256.014 89.285C258.666 89.285 261.209 88.2311 263.085 86.3562C288.411 61.0286 322.086 47.0803 357.904 47.0803C393.722 47.0803 427.398 61.0296 452.724 86.3572C478.052 111.685 492 145.359 492 181.177C492 216.995 478.052 250.669 452.724 275.997L269.256 459.464C265.719 463.001 261.016 464.949 256.013 464.949C251.011 464.949 246.308 463.001 242.771 459.464L59.3028 275.995C38.8629 255.555 25.7966 229.689 21.5198 201.195C17.3251 173.247 21.8628 145.244 34.6411 120.212C37.153 115.294 35.2011 109.271 30.2824 106.759C25.3666 104.25 19.342 106.2 16.8301 111.119C2.14191 139.891 -3.07481 172.065 1.74293 204.164C6.65966 236.92 21.6738 266.649 45.1616 290.136L228.63 473.605C235.944 480.92 245.67 484.947 256.014 484.947C266.359 484.947 276.084 480.92 283.4 473.605L466.868 290.136C495.973 261.032 512.002 222.335 512.002 181.175C512.002 140.015 495.972 101.318 466.866 72.214Z" fill="#325956"/>
<path d="M372.058 142.521C373.166 131.115 372.82 110.869 358.04 103.438C334.959 91.8348 303.476 124.369 284.302 162.502C279.184 172.682 274.994 183.112 271.964 193.144C266.82 192.028 261.487 191.425 256.014 191.425C250.541 191.425 245.209 192.028 240.065 193.144C237.035 183.112 232.844 172.682 227.726 162.502C208.552 124.369 177.074 91.8328 153.988 103.438C139.209 110.869 138.862 131.115 139.97 142.521C141.574 159.015 147.77 178.665 157.415 197.852C165.599 214.126 175.567 228.646 185.91 239.466C182.632 247.896 180.814 257.049 180.814 266.624C180.814 267.059 180.819 267.499 180.829 267.948C168.132 279.718 160.947 296.058 160.947 313.554C160.947 347.894 188.884 375.831 223.224 375.831C234.817 375.831 246.214 372.552 256.013 366.489C265.812 372.551 277.209 375.831 288.802 375.831C323.142 375.831 351.08 347.894 351.08 313.554C351.08 296.058 343.895 279.717 331.197 267.948C331.207 267.5 331.212 267.059 331.212 266.625C331.212 257.051 329.394 247.897 326.116 239.468C336.459 228.648 346.427 214.129 354.611 197.854C364.258 178.665 370.454 159.015 372.058 142.521ZM175.284 188.869C166.843 172.079 161.226 154.481 159.876 140.586C158.68 128.275 161.14 122.227 162.972 121.306C167.99 118.772 190.633 133.247 209.859 171.485C214.657 181.028 218.514 190.742 221.225 199.989C211.429 205.124 202.9 212.348 196.234 221.076C188.719 212.281 181.482 201.196 175.284 188.869ZM288.803 355.832C280.592 355.832 272.801 353.532 266.013 349.155V343.26L279.617 329.656C283.522 325.751 283.522 319.419 279.617 315.515C275.711 311.61 269.381 311.61 265.475 315.515L256.013 324.976L246.552 315.515C242.647 311.61 236.317 311.61 232.409 315.515C228.505 319.419 228.505 325.751 232.409 329.656L246.013 343.26V349.155C239.225 353.532 231.434 355.832 223.223 355.832C199.911 355.832 180.945 336.866 180.945 313.554C180.945 300.451 186.886 288.3 197.246 280.214C199.921 278.126 201.354 274.823 201.053 271.443C200.892 269.628 200.813 268.052 200.813 266.625C200.813 236.188 225.576 211.425 256.013 211.425C286.45 211.425 311.213 236.188 311.213 266.625C311.213 268.052 311.134 269.628 310.973 271.443C310.671 274.823 312.105 278.126 314.78 280.214C325.139 288.3 331.082 300.452 331.082 313.554C331.082 336.866 312.116 355.832 288.803 355.832ZM352.153 140.586C350.802 154.481 345.186 172.079 336.745 188.869C330.546 201.196 323.309 212.282 315.796 221.077C309.129 212.348 300.6 205.125 290.804 199.989C293.515 190.742 297.373 181.026 302.171 171.485C321.395 133.249 344.028 118.784 349.057 121.306C350.889 122.227 353.349 128.276 352.153 140.586Z" fill="#325956"/>
<path d="M52.2651 89.3251C57.7876 89.3251 62.2645 84.8482 62.2645 79.3256C62.2645 73.8031 57.7876 69.3262 52.2651 69.3262C46.7425 69.3262 42.2656 73.8031 42.2656 79.3256C42.2656 84.8482 46.7425 89.3251 52.2651 89.3251Z" fill="#325956"/>
<path d="M234.35 291.543C239.873 291.543 244.35 287.066 244.35 281.543C244.35 276.021 239.873 271.544 234.35 271.544C228.828 271.544 224.351 276.021 224.351 281.543C224.351 287.066 228.828 291.543 234.35 291.543Z" fill="#325956"/>
<path d="M276.348 291.543C281.87 291.543 286.347 287.066 286.347 281.543C286.347 276.021 281.87 271.544 276.348 271.544C270.825 271.544 266.348 276.021 266.348 281.543C266.348 287.066 270.825 291.543 276.348 291.543Z" fill="#325956"/>
</g>
<defs>
<clipPath id="clip0_1_21">
<rect width="512" height="512" fill="white"/>
</clipPath>
</defs>
</svg>
